<svg width="16" height="16" viewBox="0 0 16 16" fill="none" xmlns="http://www.w3.org/2000/svg">
<g id="Icon/Arrow" clip-path="url(#clip0_26441_25005)">
<path id="Vector" d="M6.66656 12.6653C6.51079 12.6656 6.35983 12.6114 6.23989 12.512C6.17239 12.456 6.11658 12.3873 6.07568 12.3097C6.03478 12.2322 6.00958 12.1473 6.00153 12.06C5.99348 11.9727 6.00274 11.8846 6.02877 11.8009C6.0548 11.7171 6.09709 11.6394 6.15322 11.572L9.13989 7.99866L6.25989 4.41866C6.20451 4.35047 6.16316 4.272 6.13821 4.18778C6.11325 4.10355 6.10519 4.01522 6.11448 3.92787C6.12377 3.84052 6.15024 3.75586 6.19235 3.67877C6.23447 3.60168 6.29141 3.53367 6.35989 3.47866C6.42887 3.41797 6.50965 3.37219 6.59715 3.3442C6.68466 3.3162 6.77701 3.3066 6.86841 3.31599C6.9598 3.32538 7.04827 3.35356 7.12826 3.39876C7.20825 3.44396 7.27803 3.50521 7.33322 3.57866L10.5532 7.57866C10.6513 7.69795 10.7049 7.84758 10.7049 8.00199C10.7049 8.15641 10.6513 8.30604 10.5532 8.42533L7.21989 12.4253C7.15301 12.506 7.06806 12.5698 6.97192 12.6115C6.87578 12.6532 6.77116 12.6716 6.66656 12.6653Z" fill="#7887A5"/>
</g>
<defs>
<clipPath id="clip0_26441_25005">
<rect width="16" height="16" fill="white"/>
</clipPath>
</defs>
</svg>
