<svg width="12" height="12" viewBox="0 0 12 12" fill="none" xmlns="http://www.w3.org/2000/svg">
<g id="Icon/Arrow" clip-path="url(#clip0_26441_25483)">
<path id="Vector" d="M8.99991 7.49984C8.88308 7.50007 8.76987 7.45938 8.67991 7.38484L5.99991 5.14484L3.31491 7.30484C3.26377 7.34637 3.20492 7.37739 3.14175 7.3961C3.07858 7.41482 3.01233 7.42087 2.94682 7.4139C2.8813 7.40693 2.81781 7.38708 2.76 7.35549C2.70218 7.3239 2.65117 7.2812 2.60991 7.22984C2.56838 7.17869 2.53736 7.11985 2.51865 7.05668C2.49993 6.99351 2.49388 6.92726 2.50085 6.86175C2.50782 6.79623 2.52767 6.73274 2.55926 6.67492C2.59084 6.6171 2.63355 6.5661 2.68491 6.52484L5.68491 4.10984C5.77438 4.0363 5.8866 3.99609 6.00241 3.99609C6.11822 3.99609 6.23044 4.0363 6.31991 4.10984L9.31991 6.60984C9.37054 6.65181 9.41239 6.70336 9.44307 6.76154C9.47374 6.81971 9.49264 6.88336 9.49868 6.94885C9.50472 7.01434 9.49778 7.08038 9.47825 7.14318C9.45873 7.20598 9.42701 7.26431 9.38491 7.31484C9.33838 7.37219 9.27973 7.41853 9.21316 7.45052C9.14659 7.48251 9.07376 7.49935 8.99991 7.49984Z" fill="#132039"/>
</g>
<defs>
<clipPath id="clip0_26441_25483">
<rect width="12" height="12" fill="white"/>
</clipPath>
</defs>
</svg>
