<svg width="16" height="16" viewBox="0 0 16 16" fill="none" xmlns="http://www.w3.org/2000/svg">
<g id="Icon/Arrow" clip-path="url(#clip0_26441_10605)">
<path id="Vector" d="M9.21978 12.6662C9.12019 12.6665 9.02178 12.6446 8.93179 12.6019C8.84181 12.5592 8.76253 12.4969 8.69978 12.4195L5.47978 8.41953C5.38173 8.30024 5.32812 8.15062 5.32812 7.9962C5.32812 7.84178 5.38173 7.69215 5.47978 7.57287L8.81312 3.57287C8.92628 3.43672 9.08888 3.35111 9.26517 3.33485C9.44145 3.3186 9.61697 3.37304 9.75312 3.4862C9.88926 3.59936 9.97488 3.76197 9.99113 3.93825C10.0074 4.11453 9.95294 4.29005 9.83978 4.4262L6.85978 7.99953L9.73978 11.5729C9.82131 11.6707 9.87309 11.7899 9.88901 11.9162C9.90493 12.0426 9.88432 12.1709 9.82961 12.2859C9.77491 12.4009 9.6884 12.4979 9.58033 12.5653C9.47226 12.6327 9.34714 12.6677 9.21978 12.6662Z" fill="#7887A5"/>
</g>
<defs>
<clipPath id="clip0_26441_10605">
<rect width="16" height="16" fill="white"/>
</clipPath>
</defs>
</svg>
